# xmcd
#
# Track frame offsets:
#	150
#	18423
#	33695
#
# Disc length: 706 seconds
#
# Revision: 2
# Processed by: cddbd v1.5.2PL0 Copyright (c) Steve Scherf et al.
# Submitted via: EZCDAudioConverter 8.0.2.1
#
DISCID=1e02c003
DTITLE=Hoàng Hải - Hồ Gươm Sáng Sớm
DYEAR=2010
DGENRE=Pop
TTITLE0=Hồ Gươm sáng sớm
TTITLE1=Yêu Hà Nội
TTITLE2=Nồng nàn Hà Nội
EXTD=
EXTT0=
EXTT1=
EXTT2=
PLAYORDER=
